<svg width="111" height="45" viewBox="0 0 111 45" fill="none" xmlns="http://www.w3.org/2000/svg">
<path d="M7.31496 14.3712C7.25245 14.3712 7.18994 14.3087 7.18994 14.3087C7.18994 14.3087 7.25245 14.3087 7.31496 14.3712Z" fill="url(#paint0_linear_102_214)"/>
<path d="M6.62744 13.7469C6.75247 13.997 6.94001 14.122 7.19006 14.247C6.94001 14.122 6.75247 13.997 6.62744 13.7469Z" fill="url(#paint1_linear_102_214)"/>
<path d="M16.3167 5.55738C16.0042 4.49468 14.7539 4.1196 13.9413 4.93226C13.5662 5.30733 13.4412 5.80743 13.5662 6.30753C13.5662 6.37004 13.5662 6.37004 13.5662 6.43255C13.6287 6.74512 13.6912 7.05768 13.6912 7.37024C13.6912 7.43275 13.6912 7.49526 13.6912 7.55777C13.7537 8.37043 13.6912 9.12058 13.4412 9.7457C12.5035 12.2462 10.5031 13.8715 8.06511 14.4341C7.75255 14.4966 7.43999 14.4966 7.18994 14.3716C7.25245 14.3716 7.25245 14.4341 7.31496 14.4341C9.75294 15.1218 12.441 14.4966 14.3788 12.6213C16.3792 10.6834 17.0044 7.99536 16.3167 5.55738Z" fill="url(#paint2_linear_102_214)"/>
<path d="M8.19043 14.434C10.6284 13.8714 12.6288 12.246 13.5665 9.74554C13.8165 9.12042 13.879 8.30776 13.8165 7.55762C13.8165 8.68284 13.3789 9.80806 12.5663 10.6832C11.3786 11.871 9.75324 12.246 8.25294 11.8084C7.75285 11.6834 7.25275 11.8084 6.87768 12.1835C6.37758 12.6836 6.37757 13.3087 6.62762 13.8714C6.87767 14.2464 7.50279 14.559 8.19043 14.434Z" fill="url(#paint3_linear_102_214)"/>
<path d="M11.4409 0.682007C11.5034 0.682007 11.566 0.744519 11.566 0.744519C11.5034 0.682007 11.4409 0.682007 11.4409 0.682007Z" fill="url(#paint4_linear_102_214)"/>
<path d="M12.129 1.24497C12.004 0.994923 11.8165 0.869897 11.5664 0.744873C11.8165 0.869897 12.004 1.05743 12.129 1.24497Z" fill="url(#paint5_linear_102_214)"/>
<path d="M2.37666 9.4339C2.68922 10.4966 3.93947 10.8717 4.75212 10.059C5.1272 9.68395 5.25223 9.18385 5.1272 8.68375C5.1272 8.62124 5.1272 8.62124 5.1272 8.55873C5.06469 8.24617 5.00218 7.93361 5.00218 7.62105C5.00218 7.55853 5.00218 7.49602 5.00218 7.43351C4.93967 6.62085 5.00217 5.8707 5.25222 5.24558C6.18991 2.74509 8.1903 1.11977 10.6283 0.557164C10.9408 0.494652 11.2534 0.494652 11.5034 0.619677C11.4409 0.619677 11.4409 0.557164 11.3784 0.557164C8.94045 -0.13047 6.25242 0.494652 4.31454 2.37002C2.31415 4.3079 1.75154 6.99592 2.37666 9.4339Z" fill="url(#paint6_linear_102_214)"/>
<path d="M10.5656 0.619609C8.12766 1.18222 6.12727 2.80754 5.18958 5.30803C4.93954 5.93315 4.87703 6.74581 4.93954 7.49595C4.93954 6.37073 5.37713 5.24551 6.18978 4.37034C7.37752 3.18261 9.00283 2.80754 10.5031 3.24512C11.0032 3.37015 11.5033 3.24512 11.8784 2.87005C12.3785 2.36995 12.3785 1.74483 12.1284 1.18222C11.8159 0.744632 11.1908 0.432072 10.5656 0.619609Z" fill="url(#paint7_linear_102_214)"/>
<path d="M0 14.8098V35.1263H6.93886V19.1857C4.12581 18.5605 1.68783 16.9977 0 14.8098Z" fill="#2D2E83"/>
<path d="M58.3241 15.6221C57.8865 15.0595 57.4489 14.6219 56.9488 14.1843C56.2612 13.6217 55.511 13.1841 54.6358 12.8715C53.7607 12.559 52.7605 12.434 51.6978 12.434C49.7599 12.434 48.0095 12.9341 46.5093 13.9343C45.009 14.9344 43.8212 16.3097 42.9461 18.0601C42.0709 19.8104 41.6333 21.8108 41.6333 24.0612C41.6333 26.2492 42.0709 28.2496 42.9461 29.9999C43.8212 31.7502 45.009 33.1255 46.4467 34.1257C47.947 35.1259 49.5724 35.626 51.4477 35.626C52.4479 35.626 53.3856 35.501 54.3233 35.1884C55.1985 34.8758 56.0111 34.4383 56.7613 33.9382C57.3239 33.5631 57.7615 33.063 58.199 32.5629V35.2509H65.0129V12.8715H58.3241V15.6221ZM56.0111 29.1872C55.261 29.6873 54.3858 29.8749 53.3231 29.8749C52.3229 29.8749 51.4477 29.6248 50.6976 29.1872C49.9474 28.6871 49.3848 27.9995 48.9472 27.1243C48.5096 26.2492 48.3221 25.1865 48.3221 23.9987C48.3221 22.811 48.5096 21.7483 48.9472 20.8731C49.3848 19.9979 49.9474 19.3103 50.6976 18.8102C51.4477 18.3101 52.3229 18.0601 53.3231 18.0601C54.3858 18.0601 55.261 18.3101 56.0111 18.8102C56.7613 19.3103 57.3864 19.9979 57.7615 20.8731C58.199 21.7483 58.3866 22.811 58.3866 23.9987C58.3866 25.1865 58.199 26.2492 57.7615 27.1243C57.3864 28.062 56.7613 28.7497 56.0111 29.1872Z" fill="#E95E29"/>
<path d="M79.5148 7.24573H72.826V12.8718H68.8252V18.8105H72.826V35.2512H79.5148V18.8105H83.8906V12.8718H79.5148V7.24573Z" fill="#E95E29"/>
<path d="M102.895 12.8715L98.7693 24.6863C98.5193 25.3739 98.3317 25.999 98.1442 26.6242C98.0817 26.3741 98.0191 26.1866 97.9566 25.9365C97.7066 25.3114 97.5191 24.6863 97.269 24.1237L92.5806 12.8715H84.9541L94.8935 34.5632L90.5177 44.8777H97.2065L101.082 35.1883L110.584 12.8715H102.895Z" fill="#E95E29"/>
<path d="M33.6315 23.6239C35.1318 22.8112 36.3196 21.6235 37.1947 20.1857C38.0699 18.6854 38.5075 17.0601 38.5075 15.1847C38.5075 13.3719 38.0699 11.8091 37.1947 10.3713C36.3196 8.9335 35.1318 7.87079 33.569 7.05813C32.0687 6.24547 30.3184 5.80789 28.443 5.80789L21.0666 5.68286C21.8167 9.24606 20.5665 14.8722 15.1904 17.9353V35.1886H22.0043V24.8741H25.6925L31.5061 35.1886H39.6952L33.0689 23.8114C33.319 23.7489 33.5065 23.6864 33.6315 23.6239ZM31.0685 17.5602C30.756 18.1228 30.3809 18.6229 29.8183 18.9355C29.2557 19.248 28.6306 19.4355 27.8804 19.4355H22.0668V11.7465H27.2553C28.1305 11.7465 28.9431 11.8716 29.5682 12.1841C30.1934 12.4967 30.6935 12.9343 31.006 13.4969C31.3186 14.0595 31.5061 14.7471 31.5061 15.4973C31.5061 16.3099 31.3811 16.9976 31.0685 17.5602Z" fill="#E95E29"/>
<defs>
<linearGradient id="paint0_linear_102_214" x1="7.20107" y1="14.3312" x2="7.27702" y2="14.2837" gradientUnits="userSpaceOnUse">
<stop stop-color="#007EC7"/>
<stop offset="0.9888" stop-color="#0050A0"/>
</linearGradient>
<linearGradient id="paint1_linear_102_214" x1="6.79579" y1="14.0676" x2="6.96845" y2="13.9596" gradientUnits="userSpaceOnUse">
<stop stop-color="#007EC7"/>
<stop offset="0.9888" stop-color="#0050A0"/>
</linearGradient>
<linearGradient id="paint2_linear_102_214" x1="9.65598" y1="15.7602" x2="16.1283" y2="4.98853" gradientUnits="userSpaceOnUse">
<stop stop-color="#3973B9"/>
<stop offset="0.9832" stop-color="#312783"/>
</linearGradient>
<linearGradient id="paint3_linear_102_214" x1="14.4416" y1="10.0826" x2="6.15047" y2="12.1498" gradientUnits="userSpaceOnUse">
<stop stop-color="#0069B4"/>
<stop offset="0.9944" stop-color="#312783"/>
</linearGradient>
<linearGradient id="paint4_linear_102_214" x1="11.5243" y1="0.67513" x2="11.4482" y2="0.722581" gradientUnits="userSpaceOnUse">
<stop stop-color="#007EC7"/>
<stop offset="0.9888" stop-color="#0050A0"/>
</linearGradient>
<linearGradient id="paint5_linear_102_214" x1="11.9301" y1="0.939911" x2="11.7574" y2="1.04787" gradientUnits="userSpaceOnUse">
<stop stop-color="#007EC7"/>
<stop offset="0.9888" stop-color="#0050A0"/>
</linearGradient>
<linearGradient id="paint6_linear_102_214" x1="9.06941" y1="-0.744778" x2="2.60089" y2="10.0206" gradientUnits="userSpaceOnUse">
<stop stop-color="#0069B4"/>
<stop offset="0.9888" stop-color="#312783"/>
</linearGradient>
<linearGradient id="paint7_linear_102_214" x1="4.28379" y1="4.92401" x2="12.575" y2="2.8568" gradientUnits="userSpaceOnUse">
<stop stop-color="#0069B4" stop-opacity="0.99"/>
<stop offset="0.9944" stop-color="#312783"/>
</linearGradient>
</defs>
</svg>
