<?xml version="1.0" standalone="no"?>
<!DOCTYPE svg PUBLIC "-//W3C//DTD SVG 20010904//EN"
 "http://www.w3.org/TR/2001/REC-SVG-20010904/DTD/svg10.dtd">
<svg version="1.0" xmlns="http://www.w3.org/2000/svg"
 width="1776.000000pt" height="1776.000000pt" viewBox="0 0 1776.000000 1776.000000"
 preserveAspectRatio="xMidYMid meet">
<metadata>
Created by potrace 1.14, written by Peter Selinger 2001-2017
</metadata>
<g transform="translate(0.000000,1776.000000) scale(0.100000,-0.100000)"
fill="#000000" stroke="none">
<path d="M1478 12435 c-2 -2 -37 -5 -78 -9 -109 -8 -145 -15 -242 -47 -220
-72 -387 -183 -548 -364 -66 -76 -186 -275 -173 -289 3 -3 1 -6 -5 -6 -7 0
-12 -6 -12 -14 0 -8 -5 -27 -12 -43 -11 -29 -13 -33 -22 -68 -50 -183 -56
-388 -17 -574 29 -142 102 -212 224 -216 128 -5 234 98 231 225 -2 79 -19 203
-30 222 -3 4 0 8 6 8 6 0 8 5 5 10 -12 19 -6 134 10 195 14 53 80 201 95 215
3 3 17 21 30 40 27 38 95 106 130 130 12 8 29 21 36 28 8 7 14 10 14 6 0 -4 8
0 18 8 24 21 103 55 176 75 68 19 296 26 296 9 0 -5 3 -7 6 -3 3 3 26 -1 51
-8 79 -24 177 -1 233 55 56 56 79 148 55 225 -14 49 -58 105 -82 105 -7 0 -13
5 -13 10 0 6 -9 10 -19 10 -11 0 -23 5 -26 10 -3 6 -17 10 -31 10 -14 0 -22 4
-19 10 3 6 -4 11 -17 12 -13 0 -27 2 -33 3 -65 12 -231 25 -237 20z m172 -59
c0 -3 -4 -8 -10 -11 -5 -3 -10 -1 -10 4 0 6 5 11 10 11 6 0 10 -2 10 -4z"/>
<path d="M2365 11758 c-22 -5 -46 -9 -52 -10 -7 -1 -13 -5 -13 -10 0 -4 -6 -8
-13 -8 -22 0 -73 -52 -97 -97 -31 -60 -32 -100 -6 -268 19 -123 5 -315 -26
-352 -6 -7 -8 -13 -4 -13 16 0 -86 -165 -136 -221 -37 -40 -127 -108 -182
-136 -108 -55 -185 -74 -306 -78 -41 -1 -106 5 -145 12 -112 23 -137 24 -192
8 -124 -36 -186 -168 -143 -301 13 -38 80 -97 112 -99 3 0 10 -3 14 -7 4 -5
18 -8 31 -8 16 0 22 -4 17 -12 -5 -7 -2 -9 8 -5 9 3 19 3 22 -1 8 -7 19 -9
106 -18 301 -31 590 51 840 240 55 42 210 194 210 207 0 4 6 14 13 21 33 33
137 209 137 233 1 3 9 25 20 50 11 25 27 74 36 108 15 58 18 75 30 152 6 43 6
256 -1 285 -3 14 -7 39 -10 55 -12 67 -18 91 -27 103 -6 6 -8 12 -4 12 11 0
-25 63 -53 93 -27 29 -72 55 -106 60 -11 1 -24 5 -30 8 -5 3 -28 2 -50 -3z"/>
<path d="M3375 11537 c3 -17 8 -39 10 -47 5 -17 17 -174 18 -240 0 -52 -11
-214 -18 -245 -2 -11 -7 -36 -9 -56 -14 -100 -69 -295 -114 -404 -34 -81 -101
-213 -111 -219 -6 -4 -11 -16 -11 -27 0 -10 -4 -19 -10 -19 -5 0 -10 -6 -10
-14 0 -8 -3 -16 -7 -18 -5 -1 -26 -30 -48 -63 -22 -33 -47 -67 -55 -75 -8 -8
-27 -31 -42 -51 -31 -42 -165 -179 -223 -228 -63 -53 -174 -134 -247 -180
l-68 -43 0 -1379 0 -1379 545 0 545 0 1 38 c1 20 2 46 3 57 0 11 -2 27 -6 36
-4 9 -5 19 -1 23 9 9 9 116 0 116 -5 0 -5 4 -2 10 10 16 12 81 3 86 -5 3 -6
10 -2 15 9 16 11 80 2 86 -5 2 -5 9 -1 15 6 11 8 79 3 103 -1 6 -2 15 0 20 4
25 1 115 -5 124 -3 6 -3 11 2 11 10 0 9 133 -1 149 -4 6 -4 11 1 11 9 0 9 233
-1 248 -3 6 -3 13 2 15 9 6 7 70 -2 86 -4 5 -3 12 1 14 9 6 8 110 -1 125 -3 6
-3 13 2 15 6 5 8 54 2 82 -1 6 -1 15 0 20 1 6 1 40 1 78 l-1 67 296 -2 296 -3
60 -105 c105 -184 150 -264 177 -315 14 -27 29 -52 32 -55 3 -3 8 -9 10 -15 5
-12 76 -141 96 -172 7 -13 14 -26 14 -30 0 -5 6 -15 12 -23 12 -15 18 -26 65
-109 14 -25 35 -62 47 -81 11 -19 29 -51 39 -70 9 -19 25 -48 35 -65 10 -16
29 -50 43 -75 28 -49 41 -73 133 -235 85 -151 126 -225 143 -258 8 -16 19 -30
26 -33 6 -2 302 -3 658 -2 l647 3 -41 70 c-107 184 -138 239 -138 246 0 5 -4
9 -9 9 -5 0 -14 12 -20 28 -6 15 -34 65 -62 112 -28 47 -62 103 -74 125 -13
22 -84 145 -159 273 -75 129 -136 235 -136 238 0 3 -5 10 -10 17 -19 21 -310
526 -310 537 0 5 -4 10 -10 10 -5 0 -10 7 -10 15 0 8 -4 15 -10 15 -5 0 -10 4
-10 10 0 5 -13 32 -30 60 -16 27 -28 50 -27 51 1 0 13 3 27 5 37 7 157 78 252
149 92 69 210 188 278 280 25 33 47 62 51 65 14 13 82 134 117 211 63 136 98
252 127 429 6 36 16 167 17 230 0 39 -10 191 -16 230 -3 23 -16 101 -20 125
-1 6 -5 16 -9 23 -5 6 -6 12 -4 12 5 0 -32 120 -55 180 -20 52 -129 253 -158
290 -91 118 -154 186 -245 265 -16 14 -73 55 -125 89 -197 131 -398 217 -610
260 -14 3 -34 7 -45 9 -25 6 -112 16 -188 22 -57 5 -420 12 -1015 20 l-302 5
5 -33z m340 -939 c2 -2 31 -1 65 2 33 3 60 2 60 -3 0 -4 5 -5 10 -2 9 6 315 9
345 4 6 -1 13 -1 16 -1 12 2 164 4 169 3 3 -1 37 -4 75 -6 62 -3 91 -8 185
-29 94 -21 268 -146 304 -218 9 -18 21 -40 26 -48 15 -24 38 -82 45 -115 13
-59 15 -71 19 -113 3 -24 6 -46 9 -48 3 -3 1 -20 -3 -38 -4 -19 -4 -40 1 -47
4 -7 5 -18 0 -24 -4 -5 -8 -23 -10 -40 -7 -87 -57 -222 -97 -263 -8 -7 -14
-17 -14 -22 0 -14 -120 -130 -135 -130 -7 0 -18 -7 -25 -15 -6 -8 -15 -14 -18
-13 -4 1 -24 -6 -45 -16 -93 -41 -154 -45 -671 -46 l-496 0 0 614 0 615 48 3
c59 4 131 2 137 -4z"/>
<path d="M11668 11322 c-14 -3 -16 -47 -16 -405 -1 -221 -1 -423 -1 -449 l-1
-48 -320 0 -319 0 0 -475 1 -475 320 -2 320 -3 0 -1312 c0 -1213 1 -1312 16
-1315 10 -2 34 -1 54 3 20 3 42 3 48 -1 6 -4 30 -4 53 0 24 3 56 3 72 -2 16
-4 33 -4 38 1 4 4 27 5 50 2 23 -3 60 -4 82 -1 22 3 52 2 67 -1 15 -4 30 -3
34 2 3 5 10 7 15 4 8 -5 40 -6 154 -5 55 1 152 2 165 1 67 -2 214 0 219 3 3 2
6 594 5 1315 l0 1311 348 0 c302 0 348 2 349 15 0 8 1 221 1 473 l1 457 -350
3 -350 2 1 450 1 450 -35 1 c-178 2 -1010 3 -1022 1z"/>
<path d="M8108 10485 c-3 -3 -29 -7 -59 -10 -30 -2 -63 -6 -74 -9 -275 -63
-397 -119 -637 -289 -27 -19 -45 -37 -41 -40 3 -4 2 -7 -4 -7 -15 0 -141 -123
-202 -198 -104 -127 -203 -294 -278 -467 -43 -100 -106 -327 -119 -430 -2 -22
-7 -46 -10 -54 -24 -69 -24 -609 0 -682 3 -7 7 -36 10 -64 7 -65 57 -259 91
-355 44 -123 163 -355 218 -425 4 -5 31 -41 59 -80 63 -84 220 -244 303 -306
157 -118 326 -200 505 -245 132 -34 224 -43 400 -39 91 2 179 6 195 9 27 6
172 38 185 41 3 1 18 7 33 13 16 7 33 12 38 12 5 0 17 4 27 9 9 5 62 31 117
57 149 72 268 155 362 252 46 47 83 81 84 76 0 -5 0 -98 0 -207 -1 -196 -1
-198 22 -206 12 -5 29 -5 38 0 9 4 19 6 22 3 3 -4 37 -6 74 -5 37 1 264 2 503
4 l434 2 1 85 c0 47 -4 91 -9 98 -5 7 -5 17 1 25 10 14 10 437 0 454 -4 6 -4
14 0 16 10 6 9 189 -1 205 -4 7 -4 12 1 12 10 0 10 291 -1 308 -4 6 -4 12 1
12 10 0 10 291 -1 308 -4 6 -4 12 1 12 10 0 10 291 -1 308 -4 6 -4 12 1 12 10
0 10 291 -1 308 -4 6 -4 12 1 12 10 0 10 291 -1 308 -4 6 -4 12 1 12 10 0 10
291 -1 308 -4 6 -4 12 1 12 10 0 10 291 -1 308 -4 6 -4 12 1 12 10 0 10 291
-1 308 -4 6 -3 12 2 12 8 0 6 109 -2 117 -3 3 -295 4 -958 3 l-107 0 0 -192
c0 -106 0 -204 -1 -218 0 -22 -5 -19 -47 30 -78 88 -230 230 -247 230 -3 0
-32 18 -65 40 -33 22 -62 40 -65 40 -3 0 -37 15 -76 34 -38 19 -70 32 -70 29
0 -3 -7 0 -15 7 -8 7 -15 10 -15 6 0 -3 -17 1 -37 9 -21 9 -39 16 -41 15 -2
-1 -73 12 -137 26 -36 8 -400 16 -407 9z m582 -906 c14 -4 52 -15 85 -24 87
-25 141 -52 220 -111 77 -57 146 -129 193 -200 27 -42 101 -208 107 -244 1 -3
4 -14 8 -25 3 -11 8 -31 11 -45 10 -61 16 -98 21 -145 4 -27 8 -51 10 -53 2
-2 0 -14 -5 -27 -5 -13 -6 -26 -3 -29 10 -10 10 -56 0 -56 -5 0 -4 -6 2 -13 6
-8 9 -16 7 -18 -3 -2 -7 -36 -10 -74 -8 -95 -35 -237 -48 -252 -6 -7 -7 -13
-3 -13 4 0 2 -7 -5 -15 -7 -8 -10 -15 -7 -15 10 0 -61 -148 -97 -203 -101
-155 -279 -271 -466 -304 -14 -3 -81 -6 -150 -8 -96 -3 -144 0 -205 15 -120
27 -233 75 -285 119 -106 92 -176 181 -237 303 -21 40 -38 78 -39 83 -1 6 -10
37 -19 70 -9 33 -18 68 -20 79 -27 121 -26 414 1 537 3 13 7 35 10 49 9 39 10
43 22 73 7 16 12 31 12 34 0 14 84 173 92 173 4 0 8 5 8 11 0 17 81 111 145
167 61 54 196 128 249 138 16 3 33 7 37 10 4 2 27 7 51 10 24 4 45 8 47 10 7
6 236 0 261 -7z"/>
<path d="M13617 10422 c-23 -5 -22 -7 22 -103 21 -46 49 -106 61 -134 13 -27
42 -92 66 -143 24 -52 44 -95 44 -97 0 -2 20 -46 44 -97 100 -212 136 -290
136 -294 0 -2 23 -52 50 -110 28 -58 50 -108 50 -110 0 -2 19 -43 41 -91 23
-49 52 -110 64 -138 13 -27 39 -84 58 -125 33 -73 42 -94 47 -115 1 -5 11 -22
21 -37 10 -14 19 -29 19 -33 0 -7 22 -56 75 -170 18 -38 57 -122 85 -185 29
-63 66 -144 82 -180 17 -36 42 -90 55 -120 14 -30 47 -102 74 -159 27 -57 49
-105 49 -108 0 -2 12 -30 27 -61 15 -31 28 -59 28 -62 1 -3 13 -30 28 -60 28
-60 82 -176 117 -255 12 -27 39 -86 60 -130 21 -44 48 -102 60 -130 12 -27 40
-87 61 -133 27 -57 38 -90 33 -105 -11 -37 -87 -219 -104 -249 -6 -10 -10 -25
-10 -33 0 -8 -4 -15 -10 -15 -5 0 -9 -3 -8 -7 2 -5 -6 -28 -16 -53 -11 -25
-20 -47 -21 -50 -2 -6 -32 -75 -50 -115 -7 -16 -32 -75 -54 -130 -23 -55 -46
-109 -51 -120 -42 -95 -60 -136 -60 -141 0 -3 -9 -25 -20 -50 -11 -24 -29 -65
-41 -91 -11 -27 -24 -57 -29 -68 -5 -11 -32 -76 -61 -145 -28 -69 -59 -141
-67 -160 -9 -19 -16 -37 -17 -40 -2 -7 -16 -39 -42 -99 -12 -29 -23 -57 -23
-62 0 -5 235 -9 533 -9 l532 0 24 63 c13 34 29 76 36 92 20 46 186 459 189
470 1 6 10 27 19 49 9 21 17 41 17 43 0 3 6 19 14 36 25 57 41 102 39 109 -1
3 4 12 12 18 8 7 15 21 15 31 0 11 4 27 10 37 8 14 27 58 35 82 2 5 15 38 38
90 5 14 11 30 12 35 0 6 11 33 24 60 13 28 24 55 25 60 2 6 8 23 15 39 6 15
45 112 87 213 41 102 81 198 89 213 8 15 11 30 8 34 -4 3 -1 6 5 6 7 0 12 5
12 11 0 10 6 27 40 104 8 17 14 32 15 35 1 3 8 21 17 40 8 19 45 107 82 195
37 88 74 174 81 190 7 17 30 68 50 115 20 47 43 99 50 115 7 17 25 59 40 95
15 36 33 79 40 95 20 46 174 407 270 635 48 113 95 223 105 245 10 22 35 81
55 130 20 50 45 108 55 130 10 22 75 175 145 340 70 165 135 318 145 340 49
111 58 135 52 135 -4 0 -2 4 4 8 6 4 22 36 36 72 15 36 34 83 44 105 10 22 18
42 19 45 2 5 11 28 44 104 12 27 20 51 17 53 -5 5 -1217 5 -1223 -1 -2 -2 -19
-48 -38 -102 -18 -55 -39 -112 -46 -129 -6 -16 -13 -37 -15 -46 -2 -9 -9 -29
-15 -45 -7 -16 -13 -33 -14 -39 -2 -5 -17 -50 -35 -100 -18 -49 -38 -108 -45
-130 -7 -22 -41 -119 -75 -215 -34 -96 -63 -179 -64 -185 -2 -5 -9 -23 -15
-40 -7 -16 -14 -37 -16 -45 -2 -8 -58 -170 -125 -360 -67 -190 -127 -361 -132
-380 -6 -19 -15 -41 -22 -49 -6 -8 -10 -17 -9 -20 2 -3 -15 -60 -36 -126 -22
-66 -42 -133 -46 -150 -9 -36 -2 -49 -75 159 -28 81 -69 189 -90 240 -75 177
-142 338 -145 346 -1 3 -7 17 -13 31 -6 15 -40 98 -77 185 -36 88 -73 177 -83
199 -9 21 -17 42 -18 45 0 3 -10 27 -22 53 -12 27 -22 51 -22 53 0 3 -12 31
-26 62 -14 31 -39 91 -56 132 -16 41 -41 102 -55 135 -14 33 -31 74 -38 90 -7
17 -21 48 -31 70 -9 22 -18 45 -20 50 -7 27 -125 300 -132 307 -8 8 -1155 17
-1195 10z"/>
<path d="M0 8486 l0 -1626 338 0 c185 0 427 0 537 0 110 1 208 1 218 1 16 0
17 68 17 1274 l0 1274 -42 11 c-97 26 -123 34 -133 42 -5 4 -16 8 -25 8 -49 0
-410 173 -440 211 -3 3 -16 12 -30 19 -71 37 -319 257 -385 342 -6 7 -20 26
-33 42 l-22 29 0 -1627z"/>
</g>
</svg>
