<?xml version="1.0" standalone="no"?>
<!DOCTYPE svg PUBLIC "-//W3C//DTD SVG 20010904//EN"
 "http://www.w3.org/TR/2001/REC-SVG-20010904/DTD/svg10.dtd">
<svg version="1.0" xmlns="http://www.w3.org/2000/svg"
 width="136.000000pt" height="36.000000pt" viewBox="0 0 136.000000 36.000000"
 preserveAspectRatio="xMidYMid meet">

<g transform="translate(0.000000,36.000000) scale(0.100000,-0.100000)"
fill="#000000" stroke="none">
<path d="M55 335 c-27 -26 -31 -65 -7 -73 8 -2 12 7 12 26 0 31 14 42 52 42
26 0 18 24 -10 28 -13 2 -32 -7 -47 -23z"/>
<path d="M150 296 c0 -29 -24 -56 -51 -56 -10 0 -19 -4 -19 -10 0 -15 43 -12
68 6 15 11 22 25 22 50 0 19 -4 34 -10 34 -5 0 -10 -11 -10 -24z"/>
<path d="M208 226 c-10 -20 -22 -36 -28 -36 -6 0 -10 -36 -10 -90 l0 -90 95 0
95 0 0 30 0 30 -65 0 -64 0 -3 96 -3 97 -17 -37z"/>
<path d="M476 229 c-92 -25 -112 -148 -34 -203 27 -19 107 -21 132 -3 16 12
17 17 6 36 -9 17 -15 20 -23 12 -18 -18 -66 -12 -89 12 l-23 22 83 3 c65 2 82
6 82 18 0 21 -26 80 -39 89 -25 15 -68 21 -95 14z m62 -61 c22 -22 13 -28 -38
-28 -48 0 -50 1 -40 20 12 23 59 27 78 8z"/>
<path d="M702 224 c-55 -23 -76 -92 -48 -159 22 -52 78 -71 129 -44 16 9 22 9
25 0 2 -6 17 -11 33 -11 l29 0 0 110 0 110 -29 0 c-16 0 -31 -6 -34 -12 -3
-10 -7 -10 -18 -2 -24 19 -55 22 -87 8z m92 -60 c35 -34 8 -104 -40 -104 -25
0 -54 34 -54 64 0 47 61 73 94 40z"/>
<path d="M963 225 c-66 -28 -51 -95 27 -124 24 -9 45 -22 48 -28 6 -20 -27
-28 -61 -15 -23 9 -34 8 -49 -2 -16 -12 -17 -15 -4 -25 19 -16 87 -25 120 -17
34 8 60 49 52 80 -4 18 -19 30 -58 44 -29 11 -54 25 -56 31 -6 17 28 25 59 14
22 -9 31 -8 39 3 16 19 5 32 -38 44 -45 12 -40 12 -79 -5z"/>
<path d="M1226 229 c-92 -25 -112 -148 -34 -203 27 -19 107 -21 132 -3 16 12
17 17 6 36 -9 17 -15 20 -23 12 -18 -18 -66 -12 -89 12 l-23 22 83 3 c65 2 82
6 82 18 0 21 -26 80 -39 89 -25 15 -68 21 -95 14z m62 -61 c22 -22 13 -28 -38
-28 -48 0 -50 1 -40 20 12 23 59 27 78 8z"/>
<path d="M10 105 l0 -95 35 0 35 0 0 78 0 78 -35 17 -35 17 0 -95z"/>
</g>
</svg>
