<?xml version="1.0" standalone="no"?>
<!DOCTYPE svg PUBLIC "-//W3C//DTD SVG 20010904//EN"
 "http://www.w3.org/TR/2001/REC-SVG-20010904/DTD/svg10.dtd">
<svg version="1.0" xmlns="http://www.w3.org/2000/svg"
 width="53.000000pt" height="26.000000pt" viewBox="0 0 53.000000 26.000000"
 preserveAspectRatio="xMidYMid meet">

<g transform="translate(0.000000,26.000000) scale(0.100000,-0.100000)"
fill="#000000" stroke="none">
<path d="M25 240 c-14 -16 -16 -23 -7 -32 9 -9 12 -7 12 10 0 15 6 22 20 22
11 0 20 5 20 10 0 17 -26 11 -45 -10z"/>
<path d="M81 217 c-1 -10 -11 -22 -23 -27 l-23 -9 23 0 c24 -1 38 19 29 41 -3
8 -6 6 -6 -5z"/>
<path d="M124 205 c-3 -13 -12 -29 -20 -36 -8 -7 -14 -31 -14 -60 0 -42 3 -49
19 -49 14 0 21 8 23 27 2 22 10 29 37 34 53 11 68 52 31 89 -29 29 -68 26 -76
-5z m51 -35 c0 -8 -10 -16 -22 -18 -18 -3 -23 2 -23 18 0 16 5 21 23 18 12 -2
22 -10 22 -18z"/>
<path d="M260 173 c-22 -15 -27 -62 -10 -93 8 -16 21 -19 65 -19 l55 1 0 62 0
63 -45 0 c-25 0 -54 -7 -65 -14z m65 -48 c0 -23 -5 -31 -22 -33 -26 -4 -41 31
-22 54 20 24 44 13 44 -21z"/>
<path d="M390 186 c0 -2 13 -32 29 -67 28 -58 29 -64 15 -90 -13 -27 -13 -29
4 -29 13 0 28 23 55 88 42 99 43 102 22 102 -9 0 -24 -18 -34 -40 l-18 -40
-18 40 c-12 26 -25 40 -37 40 -10 0 -18 -2 -18 -4z"/>
<path d="M0 115 c0 -48 2 -55 20 -55 17 0 20 7 20 43 0 31 -5 45 -20 55 -19
12 -20 10 -20 -43z"/>
</g>
</svg>
